<?xml version="1.0" encoding="utf-8"?>
<!-- Svg Vector Icons : http://www.onlinewebfonts.com/icon -->
<!DOCTYPE svg PUBLIC "-//W3C//DTD SVG 1.1//EN" "http://www.w3.org/Graphics/SVG/1.1/DTD/svg11.dtd">
<svg version="1.1" xmlns="http://www.w3.org/2000/svg" xmlns:xlink="http://www.w3.org/1999/xlink" x="0px" y="0px" viewBox="0 0 256 256" enable-background="new 0 0 256 256" xml:space="preserve">
<metadata> Svg Vector Icons : http://www.onlinewebfonts.com/icon </metadata>
<g><g><path fill="" d="M243.3,45.7l-33-33c-3.6-3.6-9.5-3.6-13.1,0L135,74.9L74.1,14c-5.2-5.2-13.7-5.2-18.9,0L14,55.2c-5.2,5.2-5.2,13.7,0,18.9l6.6,6.6l30.3-30.3c1.2-1.2,3.1-1.2,4.2,0c1.2,1.2,1.2,3.1,0,4.2L24.8,84.9l12.5,12.5L57,77.7c1.2-1.2,3.1-1.2,4.2,0c1.2,1.2,1.2,3.1,0,4.2l-19.7,19.7L54,114.1l19.7-19.7c1.2-1.2,3.1-1.2,4.2,0c1.2,1.2,1.2,3.1,0,4.2l-19.7,19.7l12.5,12.5l30.2-30.3c1.2-1.2,3.1-1.2,4.2,0c1.1,1.1,1.1,2.7,0.2,3.9l-88.9,88.9C13,196.9,10,204,10,209.2v27.5v9.3h9.3h1.6h26c5.1,0,12.2-3,15.8-6.6L243.3,58.8C246.9,55.2,246.9,49.3,243.3,45.7z"/><path fill="" d="M185.2,125.2L185.2,125.2l-2.4,2.4l-57.7,57.7l12.5,12.5l19.7-19.7c1.2-1.2,3.1-1.2,4.2,0c1.2,1.2,1.2,3.1,0,4.2L141.9,202l12.5,12.5l19.7-19.7c1.2-1.2,3.1-1.2,4.2,0c1.2,1.2,1.2,3.1,0,4.2l-19.7,19.7l12.5,12.5l30.3-30.3c1.2-1.2,3.1-1.2,4.2,0c1.2,1.2,1.2,3.1,0,4.2l-30.3,30.2l6.6,6.5c5.2,5.2,13.7,5.2,18.9,0l41.2-41.2c5.2-5.2,5.2-13.7,0-18.9L185.2,125.2z"/></g></g>
</svg>