<?xml version="1.0" encoding="utf-8"?>
<!-- Svg Vector Icons : http://www.onlinewebfonts.com/icon -->
<!DOCTYPE svg PUBLIC "-//W3C//DTD SVG 1.1//EN" "http://www.w3.org/Graphics/SVG/1.1/DTD/svg11.dtd">
<svg version="1.1" xmlns="http://www.w3.org/2000/svg" xmlns:xlink="http://www.w3.org/1999/xlink" x="0px" y="0px" viewBox="0 0 256 256" enable-background="new 0 0 256 256" xml:space="preserve">
<metadata> Svg Vector Icons : http://www.onlinewebfonts.com/icon </metadata>
<g> <path fill="" d="M19.5,246h-3.8v-0.8c-1.1-0.5-2.1-1.1-2.9-2c-2.6-2.6-3.5-6.6-2.2-10c18.4-50.7,37.6-75.3,58.5-75.3 c7.3,0,14,3,20,9c9.5,9.5,9.8,19.2,8.4,25.6c-4.2,18.8-28.6,36.1-74.7,52.9C21.7,245.8,20.6,246,19.5,246L19.5,246z M69.1,165.5 c-16.8,0-34.6,24.3-51.3,70.3c-0.3,0.7-0.1,1.5,0.4,2c0.3,0.3,0.8,0.5,1.3,0.5h0.2c0.2,0,0.3-0.1,0.5-0.1 c53.3-19.4,67.4-36.5,69.8-47.4c1.5-6.6-0.7-12.9-6.4-18.6C79.1,167.8,74.2,165.5,69.1,165.5L69.1,165.5z M110.9,234.6 c-3,0-5.9-1.5-7.7-4c-2.7-3.8-2.3-9,1-12.3c0,0,5.1-5.2,10.1-14c3.8-6.6,8.4-17,9.6-29.6c-9-4.4-18.7-13.4-24-18.6 c-5.2-5.3-14.2-15-18.6-24c-12.5,1.3-22.9,5.9-29.6,9.6c-8.8,5-14,10-14,10.1c-3.2,3.2-8.6,3.6-12.3,1c-3.8-2.7-5-7.8-2.9-12 c1.6-3.2,10.1-19.4,23.5-36c8.6-10.7,17.4-19.2,26.2-25.4c10-7.1,20.2-11.2,30.1-12.2c1.9-2.4,3.8-4.8,5.8-7 c13.1-14.9,29.4-26.7,48.4-35.1c21.1-9.3,45.7-14.4,73-15.2l-0.1-0.1l16.6,0v9.5c0,30.2-5.1,57.1-15.3,80 c-8.4,19-20.2,35.3-35.1,48.4c-2.3,2-4.6,3.9-7,5.8c-1,10-5.1,20.1-12.2,30.1c-6.2,8.8-14.7,17.6-25.4,26.2 c-17.1,13.8-34.1,22.5-35.9,23.5C113.8,234.2,112.4,234.6,110.9,234.6L110.9,234.6z M86.1,124.2l1,2.6c3.4,8.7,13.8,19.7,18.1,24 c4.3,4.3,15.3,14.7,24,18.1l2.6,1l-0.2,2.8c-1,15.2-6.4,27.6-10.8,35.4c-5.6,9.9-11.2,15.6-11.3,15.6c-0.7,0.7-0.7,1.7-0.2,2.5 c0.5,0.7,1.6,1,2.4,0.6c1.8-0.9,18.1-9.3,34.6-22.6c10.1-8.2,18.1-16.4,23.9-24.6c6.7-9.5,10.4-18.9,11-28l0.1-1.7l1.4-1 c2.7-2,5.4-4.2,7.9-6.4c14-12.4,25.2-27.8,33.1-45.8c9.7-22,14.6-47.9,14.6-77v-1.9l-1.9,0c-29.1,0-55,4.9-77,14.6 c-18,8-33.4,19.1-45.8,33.1c-2.2,2.5-4.4,5.2-6.4,7.9l-1.1,1.4l-1.7,0.1c-9.1,0.6-18.6,4.3-28,11c-8.2,5.8-16.5,13.8-24.6,23.9 c-12.9,16-21.1,31.6-22.6,34.6c-0.4,0.9-0.2,1.9,0.6,2.4c1.2,0.8,1.9,0.4,2.5-0.2c0,0,5.7-5.7,15.6-11.3 c7.8-4.4,20.3-9.9,35.4-10.8L86.1,124.2L86.1,124.2z M168,120.4c-17.8,0-32.4-14.5-32.4-32.4s14.5-32.4,32.4-32.4 c17.8,0,32.4,14.5,32.4,32.4S185.8,120.4,168,120.4L168,120.4z M168,63.3c-13.6,0-24.7,11.1-24.7,24.7c0,13.6,11.1,24.7,24.7,24.7 c13.6,0,24.7-11.1,24.7-24.7C192.7,74.4,181.6,63.3,168,63.3z"/></g>
</svg>