<?xml version="1.0" encoding="utf-8"?>
<!-- Svg Vector Icons : http://www.onlinewebfonts.com/icon -->
<!DOCTYPE svg PUBLIC "-//W3C//DTD SVG 1.1//EN" "http://www.w3.org/Graphics/SVG/1.1/DTD/svg11.dtd">
<svg version="1.1" xmlns="http://www.w3.org/2000/svg" xmlns:xlink="http://www.w3.org/1999/xlink" x="0px" y="0px" viewBox="0 0 256 256" enable-background="new 0 0 256 256" xml:space="preserve">
<metadata> Svg Vector Icons : http://www.onlinewebfonts.com/icon </metadata>
<g><g><path fill="" d="M36.1,128c0-37.8,0-75.6,0-113.4c0-3,1.5-4.6,4.5-4.6c58.3,0,116.6,0,174.9,0c3,0,4.5,1.5,4.5,4.5c0,75.7,0,151.3,0,227c0,2.9-1.5,4.5-4.4,4.5c-58.3,0-116.7,0-175,0c-2.9,0-4.4-1.6-4.4-4.5C36.1,203.7,36.1,165.8,36.1,128z M211.6,236.8c0-72.8,0-145.5,0-218.1c-55.7,0-111.3,0-166.9,0c0,72.8,0,145.4,0,218.1C100.3,236.8,155.9,236.8,211.6,236.8z"/><path fill="" d="M116.9,212.1c1-3.5,2-6.7,2.9-9.9c1.3-4.4,2.6-8.8,3.8-13.2c0.7-2.6,2.1-4.6,3.9-6.5c11.3-12.2,22.5-24.3,33.8-36.5c2.1-2.3,4.2-4.5,7.1-5.8c5.4-2.4,10.6-0.6,13.9,3c3.5,3.9,4.1,9.6,1.3,14.3c-1.4,2.2-3.2,4.2-5,6.2c-7.8,8.5-15.6,16.9-23.5,25.4c-2.8,3.1-5.8,6-8.4,9.3c-2.9,3.6-6.8,5.4-11,7c-6,2.1-11.9,4.5-17.8,6.7C117.6,211.9,117.4,212,116.9,212.1z M139.9,200.5c-4.6-4-8.5-8.5-13.4-11.8c-1.3,4.6-2.6,9-3.9,13.4c-0.1,0.2-0.2,0.7,0,0.8c1.1,1,2.1,2.1,3.4,2.7c0.5,0.3,1.6-0.4,2.4-0.6c0.6-0.2,1.2-0.5,1.9-0.7C133.3,203.1,136.5,201.9,139.9,200.5z M178.8,159.5c-4.9-4.5-9.5-8.7-14.3-13.1c-1,1.2-1.8,2.3-2.7,3.4c4.7,4.3,9.3,8.5,13.7,12.6C176.7,161.4,177.7,160.5,178.8,159.5z"/><path fill="" d="M124.8,98.8c-16.6,0-33.2,0-49.8,0c-1.5,0-3,0-4.6-0.2c-2.7-0.4-4.1-1.9-4-4.1c0.1-2.2,1.9-3.8,4.5-3.9c2.7-0.1,5.4-0.2,8.1-0.2c32.3,0,64.5,0,96.8,0c1.6,0,3.3,0.2,4.9,0.5c2,0.4,3.3,2.2,3.2,4c-0.1,1.9-1.8,3.4-3.8,3.6c-1.9,0.2-3.8,0.3-5.7,0.3C157.9,98.8,141.4,98.8,124.8,98.8C124.8,98.8,124.8,98.8,124.8,98.8z"/><path fill="" d="M125,69.5c17.7,0,35.4,0,53.1,0c1.6,0,3.2,0.1,4.5,1.3c1.1,1.1,1.6,2.3,1.1,3.7c-0.5,1.5-1.5,2.6-3.2,3c-0.8,0.2-1.7,0.2-2.6,0.2c-34.7,0-69.4,0.1-104.1,0c-1.8,0-3.6-0.4-5.2-1c-1.8-0.7-2.4-2-2.1-3.9c0.2-1.4,1.5-2.9,3.1-3.2c0.8-0.2,1.7-0.3,2.5-0.3C89.7,69.5,107.3,69.5,125,69.5C125,69.5,125,69.5,125,69.5z"/><path fill="" d="M126.5,48.4c17.6,0,35.3,0,52.9,0c2.3,0,4.3,1.6,4.4,3.6c0.1,1.8-1.2,3.5-3.1,3.8c-1.6,0.3-3.3,0.6-4.9,0.6c-33.7,0-67.4,0-101,0c-1.6,0-3.3-0.2-4.9-0.5c-2-0.4-3.5-2.2-3.3-3.8c0.2-2.1,2-3.6,4.2-3.6C89.3,48.4,107.9,48.4,126.5,48.4z"/><path fill="" d="M96.6,120.4c-8.2,0-16.4,0-24.6,0c-1.6,0-3.2-0.1-4.4-1.3c-1.1-1.2-1.7-2.5-1-4.1c0.6-1.7,1.9-2.7,3.7-2.9c2.1-0.2,4.2-0.3,6.2-0.3c15,0,30,0,45,0c1.6,0,3.2,0.4,4.7,0.8c1.7,0.5,2.6,1.9,2.6,3.4c0,1.7-1.1,2.8-2.5,3.3c-1.6,0.6-3.4,1.1-5.1,1.1C113,120.4,104.8,120.4,96.6,120.4z"/><path fill="" d="M90.6,153.6c5.7,0,11.4,0,17.1,0c1.4,0,2.8,0.2,4.2,0.6c1.9,0.5,3.1,1.9,3.2,3.4c0.1,1.4-1.3,3.4-2.9,3.9c-1.9,0.5-3.8,1-5.7,1c-10.7,0.1-21.5,0.1-32.2,0c-1.5,0-3-0.1-4.5-0.5c-2.7-0.7-3.8-2.2-3.5-4.7c0.2-2,1.9-3.4,4.4-3.4c6.6-0.1,13.3,0,19.9,0C90.6,153.7,90.6,153.6,90.6,153.6z"/></g></g>
</svg>