<?xml version="1.0" encoding="utf-8"?>
<!-- Svg Vector Icons : http://www.onlinewebfonts.com/icon -->
<!DOCTYPE svg PUBLIC "-//W3C//DTD SVG 1.1//EN" "http://www.w3.org/Graphics/SVG/1.1/DTD/svg11.dtd">
<svg version="1.1" xmlns="http://www.w3.org/2000/svg" xmlns:xlink="http://www.w3.org/1999/xlink" x="0px" y="0px" viewBox="0 0 256 256" enable-background="new 0 0 256 256" xml:space="preserve">
<metadata> Svg Vector Icons : http://www.onlinewebfonts.com/icon </metadata>
<g><g><g><path fill="" d="M194.2,8.4c-7.4,0.7-25,2.3-39.2,3.6c-14.1,1.3-26,2.5-26.5,2.8c-0.4,0.2-27.1,26.7-59.4,58.8c-40.6,40.4-58.8,58.8-59,59.8c-0.2,0.8-0.2,2.1,0,2.9c0.4,1.7,74.2,75.5,76.3,76.3c0.7,0.3,2,0.3,2.9,0.1c1.3-0.3,14.9-13.5,60-58.5c32.1-32,58.7-58.7,59-59.4c0.4-0.7,2.2-15.9,4.6-39.9c2.2-21.3,4.1-39.5,4.2-40.4c0.4-2.3-0.5-5.1-2.2-6.4C213.3,6.7,211.8,6.7,194.2,8.4z M205.3,19.7c0,1.8-6.9,68.9-7.1,69.7c-0.2,0.4-25,25.4-55.2,55.4l-55,54.6l-32.3-32.3l-32.3-32.3l16.4-16.4c9-9,33.9-33.7,55.2-54.9L133.8,25l34.3-3.1c18.9-1.7,34.9-3.2,35.8-3.2C205,18.6,205.3,18.9,205.3,19.7z"/><path fill="" d="M145.4,43.8C127.9,48,119,68.6,127.5,85.4c7.7,15.2,31.1,18.2,44.2,5.6c5.4-5.2,8.1-11.3,8.6-19.3c0.8-13.8-6.8-24.7-19.6-28C156.8,42.8,149.6,42.8,145.4,43.8z M159.5,54.4c3.4,1.5,7.5,5.5,9,8.8c1.7,3.8,2.1,6.8,1.1,10.5c-2.5,9.5-12.5,16.5-21,14.7c-5.5-1.1-11.4-6.3-13.3-11.6c-1.1-3.2-1-7.4,0.4-11c1.9-5.1,8.5-10.9,13.9-12.4C152.1,52.7,156.9,53.3,159.5,54.4z"/><path fill="" d="M209.9,114.1c-0.2,0.2-0.4,3-0.4,6.3c0,6.8,0.7,6-6,7c-9.7,1.5-17.8,8.9-21.3,19.4c-1.8,5.5-2.1,14.2-0.5,18.7c3.9,11.5,11,17.9,23.1,20.8l4.7,1.2v22v22.1h-1.5c-4.1,0-10.5-3.3-15.4-7.8l-2.3-2.2l-4.2,3.5l-4.2,3.5l3.9,3.6c6.4,6.1,13.6,9.6,20.5,10.3l3.3,0.3v3.1v3.1h5.5h5.5V245v-3.8l3.9-1.7c13.5-6.1,21.5-18.8,21.5-34.3c0-8.9-2.1-14.9-6.9-19.8c-3.6-3.6-7.8-5.5-17-7.5l-1.5-0.3v-18.7V140l1.7,0.9c0.9,0.5,2.7,1.9,4.1,3.2c1.4,1.3,2.6,2.3,2.8,2.3c0.5,0,8.8-5.3,8.8-5.7c0-0.2-0.7-1.2-1.6-2.3c-2.3-2.9-7.5-6.7-12-8.8l-3.9-1.8v-7.1v-7.1h-5.2C212.6,113.7,210.1,113.8,209.9,114.1z M209.6,156.8v19.3l-1.7-0.4c-8.4-1.8-12.8-5.6-15.3-13c-1.4-4.4-1.5-10.3-0.2-14.1c1.8-5.5,7.3-9.8,14-10.6c1.6-0.2,3-0.4,3.1-0.5C209.5,137.5,209.6,146.2,209.6,156.8z M227.5,190.9c1.3,0.6,3,1.7,3.8,2.4c3.3,3.2,4.9,10.9,3.6,17.2c-0.8,4.1-3.8,9.8-6.8,13.1c-2.4,2.7-6.2,5.8-7.1,5.8c-0.2,0-0.4-9.1-0.4-20.1v-20.2l2.2,0.4C224.1,189.6,226.2,190.3,227.5,190.9z"/></g></g></g>
</svg>