<?xml version="1.0" encoding="utf-8"?>
<!-- Svg Vector Icons : http://www.onlinewebfonts.com/icon -->
<!DOCTYPE svg PUBLIC "-//W3C//DTD SVG 1.1//EN" "http://www.w3.org/Graphics/SVG/1.1/DTD/svg11.dtd">
<svg version="1.1" xmlns="http://www.w3.org/2000/svg" xmlns:xlink="http://www.w3.org/1999/xlink" x="0px" y="0px" viewBox="0 0 256 256" enable-background="new 0 0 256 256" xml:space="preserve">
<metadata> Svg Vector Icons : http://www.onlinewebfonts.com/icon </metadata>
<g><g><g><path fill="" d="M143.2,19.3c-25.2,2.6-48.8,12.1-68,27.5C69.9,51.1,60.1,61,56,66.1c-12.7,15.9-21.6,34.8-25.5,54c-0.8,3.9-1.5,7-1.5,7.1c-0.1,0-2.3-4.4-4.9-9.9c-2.6-5.6-5.3-10.6-5.9-11.2c-1.2-1.1-4.1-1.4-5.8-0.6c-1.1,0.6-2.3,2.9-2.3,4.5c0,1.8,18.3,40.7,19.8,42c1.4,1.3,4.2,1.5,5.8,0.3c1.1-0.8,26.6-33.4,27.6-35.3c2.1-3.9-3.7-8.6-7.4-6c-0.5,0.4-4.5,5.2-8.8,10.8c-6.1,7.9-7.9,9.9-7.9,9c-0.1-0.6,0.4-4,1.1-7.6c8.2-41.3,38.1-75.1,78.2-88.3c10.3-3.4,24.7-5.9,34.2-5.9c3.8,0,5.1-0.5,6.3-2.5c1.3-2.1,1-4.5-1-6.2c-1.4-1.3-1.5-1.3-7.3-1.2C147.5,19.1,144.1,19.2,143.2,19.3z"/><path fill="" d="M146.9,54.7c-16.7,1.5-33.4,7.9-47,18c-7,5.2-16.2,14.9-21.3,22.4c-2.4,3.6-5.9,10-8,15c-13.4,31.3-7.9,67.7,14.1,94.2c22.5,27,58.8,38.5,93,29.7c33.1-8.6,59.4-36.2,66.3-69.5c9-43.9-14.5-87.4-56.1-103.9C175.4,55.7,160.2,53.5,146.9,54.7z M170.6,66.1c23.8,5.1,43.2,19.1,54.9,39.9c11.4,20.2,13.6,44,6,66.1c-4.7,13.6-14.2,27.3-25.3,36.3c-37.7,30.6-92.9,22-119.6-18.7c-5.3-8-8.8-16.5-11.2-26.9c-1.3-5.3-1.3-6.3-1.4-16.8c0-9.9,0.1-11.8,1.1-16.3c3.7-17.1,11.5-31,24-43c11.9-11.4,26.7-18.7,43.5-21.4C148.9,64.3,164.3,64.7,170.6,66.1z"/><path fill="" d="M193.6,100.4c-0.7,0.2-9.7,8.9-20.1,19.4l-18.9,18.9l-14.2-14.2c-14-14-14.2-14.1-16.1-14.1c-3.4,0-5.8,3.1-4.9,6.4c0.3,1,5.4,6.4,16.7,17.7l16.3,16.3h2.1h2.1l21.7-21.8c21.5-21.5,21.8-21.8,21.8-23.6c0-2.3-1-3.9-3.1-4.8C195.4,99.8,195.3,99.8,193.6,100.4z"/></g></g></g>
</svg>