<?xml version="1.0" encoding="utf-8"?>
<!-- Svg Vector Icons : http://www.onlinewebfonts.com/icon -->
<!DOCTYPE svg PUBLIC "-//W3C//DTD SVG 1.1//EN" "http://www.w3.org/Graphics/SVG/1.1/DTD/svg11.dtd">
<svg version="1.1" xmlns="http://www.w3.org/2000/svg" xmlns:xlink="http://www.w3.org/1999/xlink" x="0px" y="0px" viewBox="0 0 256 256" enable-background="new 0 0 256 256" xml:space="preserve">
<metadata> Svg Vector Icons : http://www.onlinewebfonts.com/icon </metadata>
<g><g><path fill="" d="M218.8,246H37.2c-15,0-27.2-12.2-27.2-27.2V37.2C10,22.2,22.2,10,37.2,10h181.5c15,0,27.2,12.2,27.2,27.2v181.5C246,233.8,233.8,246,218.8,246z M37.2,28.2c-5,0-9.1,4.1-9.1,9.1v181.5c0,5,4.1,9.1,9.1,9.1h181.5c5,0,9.1-4.1,9.1-9.1V37.2c0-5-4.1-9.1-9.1-9.1H37.2L37.2,28.2z"/></g></g>
</svg>